<svg xmlns="http://www.w3.org/2000/svg" viewBox="0 0 1000 350" fill="none" stroke="#185FA5" stroke-width="1.2" stroke-linecap="round" stroke-linejoin="round">
  <!-- Sumatra -->
  <path d="M60 240 C75 225, 105 195, 130 170 C155 145, 175 120, 185 95 C195 70, 195 50, 185 35 C175 20, 155 15, 140 20 C125 25, 115 40, 110 60 C105 80, 95 95, 85 105 C75 115, 60 120, 50 130 C40 140, 35 155, 40 170 C45 185, 55 200, 60 220 Z"/>
  <!-- Java -->
  <path d="M195 280 C220 278, 260 275, 310 273 C360 271, 410 272, 450 275 C490 278, 520 282, 540 288 C560 294, 565 300, 555 305 C545 310, 520 312, 490 310 C460 308, 420 305, 380 303 C340 301, 300 300, 265 302 C230 304, 210 308, 200 305 C190 302, 185 290, 195 280 Z"/>
  <!-- Kalimantan -->
  <path d="M370 100 C400 80, 440 65, 480 60 C520 55, 555 65, 575 85 C595 105, 600 135, 590 165 C580 195, 555 220, 525 235 C495 250, 460 255, 430 245 C400 235, 380 210, 370 185 C360 160, 355 135, 360 115 Z"/>
  <!-- Sulawesi -->
  <path d="M610 70 C625 60, 645 55, 660 60 C675 65, 685 80, 680 100 C675 120, 660 135, 645 140 C630 145, 615 140, 610 125 C605 110, 600 90, 610 70 Z"/>
  <path d="M620 155 C630 150, 645 155, 650 170 C655 185, 650 205, 640 215 C630 225, 618 220, 615 205 C612 190, 612 170, 620 155 Z"/>
  <!-- Papua -->
  <path d="M770 90 C795 75, 830 70, 865 75 C900 80, 925 100, 930 125 C935 150, 920 175, 895 190 C870 205, 840 210, 815 200 C790 190, 775 170, 770 145 C765 120, 760 105, 770 90 Z"/>
  <!-- Bali -->
  <ellipse cx="565" cy="295" rx="8" ry="5"/>
  <!-- Lombok -->
  <ellipse cx="590" cy="290" rx="7" ry="5"/>
  <!-- Sumbawa -->
  <ellipse cx="625" cy="285" rx="12" ry="4"/>
  <!-- Flores -->
  <ellipse cx="670" cy="275" rx="14" ry="3.5"/>
  <!-- Timor -->
  <ellipse cx="720" cy="270" rx="15" ry="3"/>
  <!-- Bangka -->
  <ellipse cx="220" cy="240" rx="8" ry="12"/>
  <!-- Belitung -->
  <ellipse cx="255" cy="235" rx="7" ry="9"/>
  <!-- Natuna -->
  <circle cx="310" cy="180" r="4"/>
  <!-- Ternate -->
  <circle cx="680" cy="140" r="3"/>
  <!-- Ambon -->
  <circle cx="710" cy="200" r="4"/>
  <!-- Tual -->
  <circle cx="750" cy="220" r="3"/>
</svg>
