<?xml version="1.0" encoding="UTF-8"?>
<svg id="Layer_1" data-name="Layer 1" xmlns="http://www.w3.org/2000/svg" viewBox="0 0 2663.59 415.12">
  <defs>
    <style>
      .cls-1 {
        fill: #c72328;
      }

      .cls-2 {
        fill: #231f20;
      }

      .cls-3 {
        fill: #e22a2a;
      }
    </style>
  </defs>
  <path class="cls-2" d="M763.05,112.38c-4.04-6.99-9.36-13.14-15.84-18.27-8.31-6.53-16.83-9.84-25.31-9.84s-16.34,3.31-25.19,10.08l-.21.16c-6.63,5.29-11.91,11.29-15.64,17.69l-132.63,220.57h78.91l25.39-41.71h0l58.81-96.61h0l9.54-15.67,9.47,15.67h0l.32.53,7.21,11.95h-.02l38.18,63.38h0l37.6,62.42,78.76.52-129.36-220.86Z"/>
  <path class="cls-2" d="M984.49,245.18h105.97v23.96h-90.64c-18.21,0-32.69-5.4-44.23-16.52-11.42-10.94-16.96-25.03-16.96-43.06s5.59-32.77,17.11-44.2c11.53-11.44,25.95-16.99,44.09-16.99h138.65v-63.71h-138.65c-36.06,0-66.17,11.27-89.5,33.52-23.49,22.38-35.39,52.04-35.39,88.12s11.92,66.56,35.45,90.44c23.57,23.96,53.66,36.1,89.44,36.1h154.35v-148.11h-169.67v60.44Z"/>
  <path class="cls-2" d="M1444.73,216.57c10.81-13.87,17.51-31.11,17.51-50.05,0-44.28-35.21-80.05-79.12-81.57v-.28h-200.13v43.52l31.84,19.94h-31.84s0,184.72,0,184.72h63.69v-84.41h133.62v-.25h0v.25c10.05,0,18.19,8.15,18.19,18.18h.03v66.23h63.71v-66.23h-.01s.01-.03.01-.03c0-18.94-6.7-36.15-17.51-50.02ZM1380.3,184.74h-133.62v-36.36h133.62v-.26h0v.26c10.05,0,18.19,8.13,18.19,18.17s-8.14,18.19-18.18,18.19h0Z"/>
  <path class="cls-2" d="M1735.66,240.6v-63.71h-177.34v-27.11h213.93v-65.31h-235.16c-24.25,0-44.09,19.85-44.09,44.09v160.4c0,24.24,19.84,44.09,44.09,44.09h235.16v-65.33h-213.93v-27.11h177.34Z"/>
  <path class="cls-2" d="M2001.28,178.77h-117.11c-10.19,0-18.46-7.68-18.46-17.14s8.27-17.14,18.46-17.14h117.11v-.04c10.19,0,18.46,7.67,18.46,17.14h64.66v-.03c0-42.64-37.22-77.14-83.12-77.14v.03h-117.11c-45.89,0-83.1,34.51-83.1,77.14s37.21,77.2,83.1,77.2h117.11c10.19,0,18.46,7.68,18.46,17.15s-8.26,17.13-18.46,17.13h-117.11c-10.19,0-18.46-7.67-18.46-17.13h-64.64v.03c0,42.65,37.21,77.14,83.1,77.14h117.11c45.9,0,83.12-34.57,83.12-77.21s-37.22-77.13-83.12-77.13Z"/>
  <rect class="cls-2" x="2157.04" y="269.27" width="63.83" height="63.83"/>
  <polygon class="cls-2" points="2293.51 84.67 2293.51 125.39 2324.51 145.34 2293.51 145.34 2293.51 332.85 2355.53 332.85 2355.53 84.67 2293.51 84.67"/>
  <path class="cls-2" d="M2628.14,120.74c-23.57-23.94-53.66-36.07-89.44-36.07h-154.35v248.18h154.35c36.05,0,66.16-11.28,89.51-33.52,23.47-22.4,35.39-52.04,35.39-88.13s-11.91-66.57-35.46-90.46ZM2582.8,252.13c-11.55,11.45-25.98,17.01-44.09,17.01h-91.93v-120.76h91.93c18.21,0,32.68,5.38,44.23,16.49,11.42,10.95,16.97,25.06,16.97,43.06s-5.6,32.77-17.11,44.2Z"/>
  <g>
    <path class="cls-3" d="M195.6,89.63c48.46,16.51,83.2,54.69,97.08,99.88,1.95-13.02,3.55-35.84-3.05-60.58-3.96-14.83-10.87-30.36-22.4-44.89-11.01-13.86-24.31-24.79-39.02-32.86-59.34-32.56-143.74-18.35-186.69,34.83-6.32,7.83-11.48,15.73-15.78,23.27-8.66,15.27-13.92,29.22-17.1,40.79-.93,2.87-1.53,5.6-2.12,8.19-.6,2.58-1.15,5-1.56,7.26-.67,4.29-1.38,7.89-1.7,10.97,0,.09-.04.18-.04.18-.1.34-.17.6-.22.82,30.06-75.2,114.69-114.41,192.6-87.87Z"/>
    <path class="cls-3" d="M357.65,89.8c-14.91-39.24-50.15-71.41-101.1-84.17-1.95-.49-3.85-.93-5.76-1.31-.83-.18-1.66-.36-2.46-.52-.88-.17-1.75-.35-2.6-.51-35.78-6.85-65.3-1.86-85.41,4.52-.19.07-.39.11-.59.18-.69.18-1.37.4-2,.6-.08.05-.17.05-.17.05-.94.14-1.39.23-1.39.23,0,0,.14.06.41.15-5.43,1.87-8.22,2.85-8.22,2.85,0,0,.2.02.56.07-11.48,4.65-17.78,8.9-17.78,8.9,9.78-.68,19.03-.88,27.8-.66,52.42,1.32,107.19,22.3,134.5,69.1,31.86,54.62,24.6,130.46-18.6,181.16,20.01-11.22,38.1-25.87,53.11-43.08,38.06-43.63,45.96-94.79,29.72-137.55Z"/>
    <path class="cls-3" d="M397.57,183.55c0,114.27-93.32,206.89-208.41,206.89-43.31,0-83.54-13.09-116.84-35.53-14.92-9.38-27.74-20.23-38.48-31.6-4.14-6.13-7.77-12.3-10.89-18.36-4.63-8.91-8.28-17.55-11.07-25.85-1.13-3.29-2.11-6.54-2.98-9.66,0-.03-.03-.08-.03-.11-4.3-13.92-6.61-26.89-7.77-38.06-2.45-23.02-.08-38.37-.08-38.37.36,4.42,1.08,9.02,2.06,13.64,2.86,13.36,7.9,27.07,12.71,38.29.36.82.7,1.64,1.05,2.43v.02c5.28,12.04,10.04,20.75,10.97,22.41.03.04.08.14.16.25v.02l.02.03c.25.47.57.99.87,1.51,3.14,5.41,6.85,10.96,10.96,16.45-.67-2.65-1.34-5.33-1.98-7.99-3.5-18.06-2.57-36.13,1.52-52.11,4.06-16.04,11.11-30.05,19.58-41.81,8.5-11.83,18.35-21.44,28.75-29.05,16.99-12.44,35.21-19.54,52.07-22.26h.1c3.73-.61,7.41-1,10.96-1.17,2.5-.21,4.94-.23,7.36-.18,8.55-.09,18.5.66,26.59,3.58-20.46,10.74-48.67,24.3-48.67,24.3,14.34-1.33,22.85-1.78,35.26-8.94,1.64-.93,3.26-1.86,4.84-2.76,19.02-10.58,34.65-16.58,57.52-10.95,8.44,2.07,14.36,4.88,18.29,6.71,3.86,2.09,5.74,3.27,5.74,3.27,0,0-2.23.12-6.45.45-4.22.47-10.27,1.21-17.47,3.3-4.12,1.18-8.54,2.84-13.15,4.99-1.88.9-3.83,1.89-5.84,3.01-1.57.84-3.19,1.77-4.81,2.82-8.26,5.39-16.52,12.51-23.6,21.55-.46.58-.95,1.23-1.42,1.84-6.46,8.61-11.83,18.78-14.92,29.53-2.4,8.15-3.45,16.68-2.94,24.7.21,3.27.68,6.49,1.4,9.58.69,3.19,1.69,6.21,2.95,9.06.85,1.92,1.8,3.78,2.86,5.6.85,1.51,1.8,3.07,2.86,4.47,2.06,2.94,4.5,5.82,7.26,8.62,48.9,49.37,129.14-1.92,166.7-47.81,0,0,61.09-76.48,10.55-162.7-1.01-1.71-2.03-3.37-3.06-5.03.3.26,2.97,2.48,6.97,6.54,4.6,7.07,9.26,15.3,13.43,24.65,4.57,10.21,8.24,20.86,11.1,31.77,4.97,18.97,7.41,38.66,7.41,58.02Z"/>
    <path class="cls-1" d="M417.31,208.25c0,114.24-93.32,206.87-208.4,206.87-43.32,0-83.55-13.1-116.84-35.54-21.86-13.69-39.15-30.58-52.04-47.64-2.19-2.86-4.25-5.76-6.18-8.64,10.73,11.37,23.55,22.22,38.48,31.6,33.31,22.43,73.53,35.53,116.84,35.53,115.09,0,208.41-92.62,208.41-206.89,0-19.36-2.44-39.05-7.41-58.02-2.86-10.91-6.53-21.56-11.1-31.77-4.17-9.35-8.83-17.58-13.43-24.65,8.31,8.5,22.42,25.16,33.17,49.32,4.54,10.24,8.24,20.9,11.1,31.81,4.96,18.95,7.4,38.65,7.4,58.01Z"/>
    <rect class="cls-3" x="407.89" y="89.96" width="30.84" height="30.61"/>
    <rect class="cls-3" x="438.73" y="59.35" width="30.84" height="30.61"/>
    <rect class="cls-3" x="407.89" y="28.74" width="30.84" height="30.61"/>
  </g>
</svg>