<?xml version="1.0" encoding="UTF-8" standalone="no"?>
<!-- Created with Inkscape (http://www.inkscape.org/) -->

<svg
   width="3840"
   height="2160"
   viewBox="0 0 3840 2160"
   version="1.1"
   id="svg1"
   xml:space="preserve"
   inkscape:version="1.4 (e7c3feb100, 2024-10-09)"
   sodipodi:docname="Edifier.svg"
   xmlns:inkscape="http://www.inkscape.org/namespaces/inkscape"
   xmlns:sodipodi="http://sodipodi.sourceforge.net/DTD/sodipodi-0.dtd"
   xmlns="http://www.w3.org/2000/svg"
   xmlns:svg="http://www.w3.org/2000/svg"><sodipodi:namedview
     id="namedview1"
     pagecolor="#ffffff"
     bordercolor="#000000"
     borderopacity="0.25"
     inkscape:showpageshadow="2"
     inkscape:pageopacity="0.0"
     inkscape:pagecheckerboard="0"
     inkscape:deskcolor="#d1d1d1"
     inkscape:document-units="px"
     inkscape:zoom="0.16"
     inkscape:cx="2806.25"
     inkscape:cy="1287.5"
     inkscape:window-width="1920"
     inkscape:window-height="1008"
     inkscape:window-x="0"
     inkscape:window-y="0"
     inkscape:window-maximized="1"
     inkscape:current-layer="layer1" /><defs
     id="defs1" /><g
     inkscape:label="Layer 1"
     inkscape:groupmode="layer"
     id="layer1"><path
       style="fill:#ffffff;fill-opacity:1;stroke-width:1.00941"
       d="m 480.08062,865.5525 -2.05032,587.1462 338.30209,4.0564 -1.02516,-70.9849 H 572.34482 v -196.7295 l 226.55989,1.0141 1.02516,-67.9427 -221.4341,-1.0141 -3.07547,-184.5607 h 239.88693 l -1.02516,-74.027 z"
       id="path1" /><path
       id="path2"
       style="fill:#ffffff;fill-opacity:1;stroke-width:1.01975"
       d="m 945.32561,866.7148 c -0.40143,194.8587 -0.80287,389.7173 -1.2043,584.576 102.82689,0.2748 205.65369,0.5496 308.48069,0.8244 40.6764,-10.0723 84.7389,-33.1729 95.1844,-75.7417 -1.4049,-143.7672 -2.0448,-287.5634 -3.9282,-431.3124 -0.9789,-34.2272 -29.5458,-61.2161 -62.4501,-69.4831 -22.2231,-7.5319 -46.2192,-3.399 -69.3384,-4.9781 -88.9147,-1.2951 -177.8294,-2.59 -266.74409,-3.8851 z m 101.22179,71.1753 c 49.4053,0.3894 98.8106,0.7788 148.216,1.1682 25.4311,7.3193 46.5268,26.4318 55.43,50.4128 0,115.0458 0,230.0918 0,345.1377 -8.2801,27.9846 -36.6419,49.5792 -66.0669,52.5074 -46.6633,0 -93.3265,0 -139.9897,0 0.8035,-149.7421 1.6071,-299.484 2.4106,-449.2261 z" /><rect
       style="fill:#ffffff;fill-opacity:1"
       id="rect3"
       width="83.838387"
       height="573.73737"
       x="1489.1414"
       y="871.90662" /><path
       style="fill:#ffffff;fill-opacity:1"
       d="m 1717.4242,864.8359 3.0303,576.7676 h 87.8788 l -1.0101,-254.5454 219.192,-1.0101 v -48.4849 l -222.2223,-3.0303 -3.0303,-210.101 246.4647,2.0202 -1.0101,-57.5757 z"
       id="path3" /><rect
       style="fill:#ffffff;fill-opacity:1"
       id="rect4"
       width="83.838387"
       height="573.73737"
       x="2169.1414"
       y="871.90662" /><path
       style="fill:#ffffff;fill-opacity:1;stroke-width:1.00941"
       d="m 2402.0806,867.5525 -2.0503,587.1462 338.3021,4.0564 -1.0252,-70.9849 h -242.9624 v -196.7295 l 226.5599,1.0141 1.0252,-67.9427 -221.4341,-1.0141 -3.0755,-184.5607 h 239.8869 l -1.0251,-74.027 z"
       id="path4" /><path
       style="fill:#ffffff;fill-opacity:1"
       d="m 2872.8495,867.5403 c 0,193.19 0,386.3799 0,579.5699 30.1075,0.3584 60.215,0.7169 90.3225,1.0753 0.7169,-174.1936 1.4337,-348.3871 2.1506,-522.5807 51.9713,1.0753 103.9427,2.1505 155.914,3.2258 26.1002,5.3503 52.7509,17.5224 64.5161,43.0108 0.3584,32.6165 0.7169,65.233 1.0753,97.8495 -18.5315,23.0024 -39.9607,47.5047 -68.4954,57.1584 -35.9496,2.0941 -71.8991,4.1883 -107.8487,6.2824 55.1971,106.81 110.3943,213.6201 165.5914,320.4301 39.0681,1.0753 78.1362,2.1505 117.2043,3.2258 -53.7635,-93.9068 -107.5269,-187.8136 -161.2904,-281.7204 37.3252,-2.3921 77.2355,-6.8054 106.7974,-32.2128 33.4004,-24.8294 64.1454,-62.5172 60.1933,-106.6616 -1.8697,-31.1263 -3.1104,-64.089 -20.7892,-91.0199 -12.1744,-25.3066 -31.6701,-47.5522 -58.8239,-57.0614 -36.9025,-17.0962 -77.6165,-21.9853 -117.8581,-20.5712 -76.2197,0 -152.4395,0 -228.6592,0 z"
       id="path5" /></g></svg>
