<svg xmlns="http://www.w3.org/2000/svg" fill="none" viewBox="0 0 73 80"><g clip-path="url(#clip0_3802_17095)"><path fill="#EA4335" d="M34.08 38.224.284 73.364C1.322 77.197 4.91 80 9.063 80c1.7 0 3.304-.467 4.626-1.215l.094-.093 37.951-21.496z"/><path fill="#FBBC04" d="M68.255 32.243 51.83 22.897 33.325 38.972 51.83 57.196l16.332-9.252c2.832-1.495 4.814-4.486 4.814-7.85 0-3.459-1.888-6.356-4.72-7.851"/><path fill="#4285F4" d="M.283 6.636A9.3 9.3 0 0 0 0 8.972v62.056c0 .935.094 1.589.283 2.337l34.93-34.206z"/><path fill="#34A853" d="m34.364 40 17.465-17.103L13.878 1.308A9.2 9.2 0 0 0 9.158 0C4.908 0 1.415 2.804.377 6.636z"/></g><defs><clipPath id="clip0_3802_17095"><path fill="#fff" d="M0 0h72.975v80H0z"/></clipPath></defs></svg>