<svg xmlns="http://www.w3.org/2000/svg" fill="none" viewBox="0 0 80 22"><g fill="#DB202C" clip-path="url(#clip0_3802_16458)"><path d="M7.592 12.168 3.2 0H0v21.496q1.678-.24 3.368-.456V9.344l3.904 11.208c1.224-.144 2.456-.28 3.688-.4V0H7.592zM14.2 19.84q4.656-.42 9.36-.696v-3.32c-2 .112-4 .256-5.992.408v-5.024c1.304-.016 3.024-.056 4.552-.032v-3.32c-1.216 0-3.176.016-4.552.032V3.352h5.992V0H14.2zM25.712 3.352h3.528v15.52c1.12-.04 2.248-.08 3.368-.104V3.352h3.528V0H25.712zm12.584 15.32h3.368v-7.664h4.568v-3.32h-4.568V3.352h6.04V0h-9.408zM53.224 0h-3.368v18.84q4.596.154 9.144.464v-3.32q-2.882-.194-5.776-.328zm8.56 19.504c1.128.088 2.248.176 3.368.28V0h-3.368zM80 0h-3.704l-2.44 5.656L71.672 0h-3.648l3.92 10.104-4.28 9.912c1.184.112 2.36.24 3.544.368l2.488-5.76 2.464 6.352c1.28.168 2.56.336 3.84.52h.008l-4.384-11.32z"/></g><defs><clipPath id="clip0_3802_16458"><path fill="#fff" d="M0 0h80.008v21.496H0z"/></clipPath></defs></svg>