<svg xmlns="http://www.w3.org/2000/svg" fill="none" viewBox="0 0 80 14"><g clip-path="url(#clip0_3802_16783)"><path fill="#050708" d="M27.025 13.357c-1.443-.15-2.381-.65-2.783-1.48-.155-.32-.282-.932-.284-1.363-.003-1.26.618-2.133 1.829-2.568.687-.247 1.327-.324 2.71-.324h1.257v-.355c0-.918-.682-1.472-1.801-1.463-.614.005-1.04.116-1.809.474-.698.324-.87.335-1.207.078-.207-.158-.622-.943-.653-1.236-.015-.149.023-.194.37-.433 1.236-.855 3.44-1.228 4.95-.839 1.017.263 1.773.838 2.18 1.658.37.75.386.921.388 4.488l.002 3.131-.127.031c-.772.192-3.908.317-5.022.2m2.553-1.943.176-.035V9.31h-.97c-1.48.002-1.987.125-2.278.558-.1.147-.129.27-.128.534 0 .562.221.807.872.968.295.073 2.02.105 2.328.044m31.33 1.94c-1.59-.204-2.74-.949-3.382-2.193-.773-1.497-.754-3.707.046-5.185.832-1.54 2.422-2.394 4.236-2.275 1.845.121 2.986.971 3.515 2.617.207.644.279 1.2.279 2.152v.784h-6.15l.033.275c.068.58.443 1.114.982 1.402.472.251.906.35 1.548.35.931 0 1.75-.254 2.395-.742l.307-.231.103.134c.057.074.18.29.274.48.305.616.194 1.218-.3 1.618-.832.676-2.401 1.005-3.886.815m2.397-5.817c.052-.053-.07-.666-.185-.926a1.62 1.62 0 0 0-.804-.798c-.412-.183-1.22-.183-1.679 0-.586.233-1.08.866-1.152 1.476l-.033.277h1.912c1.051 0 1.925-.013 1.94-.029m-61.07 5.79c-.91-.108-1.766-.42-2.038-.743-.19-.226-.244-.574-.156-1.002.091-.442.37-1.055.463-1.016l.521.224a6.1 6.1 0 0 0 2.68.475c.889-.049 1.266-.293 1.254-.814-.01-.476-.305-.648-1.566-.915-1.359-.289-1.89-.515-2.445-1.038-.487-.46-.74-1.094-.74-1.86 0-.802.26-1.413.825-1.942 1.015-.948 2.8-1.243 4.91-.81.607.124 1.306.364 1.342.46.05.127-.14.91-.297 1.23-.077.16-.21.336-.295.392-.202.135-.63.123-1.25-.034-.669-.17-1.78-.216-2.208-.091-.407.118-.606.34-.606.674 0 .478.25.631 1.42.873 1.851.383 2.722.873 3.141 1.769.293.625.354 1.78.109 2.472-.869 1.781-3.114 1.985-5.064 1.696m39.444-.046c-.943-.197-1.514-.716-1.83-1.663-.096-.287-.104-.616-.122-4.559-.01-2.337-.003-4.33.015-4.43.081-.44.582-.742 1.7-1.024.377-.095.7-.173.718-.173.017 0 .03.544.03 1.21v1.21h2.49l-.023.717c-.018.55-.049.769-.13.936-.159.33-.318.373-1.406.373h-.93V8.2c0 2.298.001 2.326.127 2.575a.8.8 0 0 0 .38.382c.238.123.302.129 1.088.109l.836-.021-.02.65c-.016.53-.04.686-.135.847-.133.226-.4.422-.694.51-.332.1-1.67.117-2.094.028m-21.542-1.557c-.006-.443-.006-1.045-.006-1.87 0-1.772-.022-2.892-.06-3.07-.14-.65-.598-.977-1.413-1.01-1.38.05-1.759.904-1.791 1.614l.026 5.834c-.825.022-1.65.01-2.474 0l-.028-3.264c-.028-3.207-.03-3.268-.15-3.49-.26-.481-.59-.66-1.291-.692-.689-.032-1.071.078-1.392.4-.406.407-.396.312-.416 3.866l-.017 3.18-2.418.03v-3.28C8.71 6.29 8.715 6.23 9.1 5.45c.395-.803 1.142-1.365 2.168-1.632.58-.15 2.028-.138 2.625.023.621.168 1.097.428 1.451.793l.307.316.314-.31c.38-.373.858-.637 1.448-.797.636-.174 2.045-.174 2.682 0 1.328.362 2.162 1.207 2.428 2.46.068.319.083.992.084 3.635 0 3.007-.006 3.247-.095 3.281-1.37.277-2.405.166-2.374-1.494m53.245 1.526c-.335-.071-.52-.171-.656-.356-.115-.155-.118-.226-.146-3.18l-.026-2.486c.05-.937-.427-1.488-1.613-1.463-1.163-.024-1.621.617-1.585 1.168l-.012 6.289h-2.476v-3.208c0-2.882.01-3.251.1-3.636q.432-1.84 2.213-2.412c.883-.284 1.801-.35 2.797-.2 1.666.252 2.624 1.034 3.003 2.454.084.317.099.767.117 3.66l.02 3.299-.13.037c-.22.064-1.354.088-1.606.034m-39.627-.028c.027-.874.002-2.373.008-3.33.02-3.083.026-3.215.145-3.649.345-1.257 1.045-1.97 2.244-2.284.508-.133 1.58-.2 2.235-.138l.44.041-.024.684c-.018.528-.05.742-.138.938-.175.388-.224.41-.995.449-.724.036-.819.065-1.062.32-.35.368-.348.356-.37 3.831l-.02 3.138c-.838.009-1.673.002-2.463 0M45.92 8.058c.018-5.748-.004-5.398.39-6.228.243-.509.839-1.102 1.384-1.377.722-.363 1.225-.455 2.49-.453.603 0 1.17.02 1.26.044l.163.043-.035.574c-.043.689-.154 1.095-.351 1.28-.139.13-.191.14-1.028.169-.757.026-.915.048-1.114.152-.442.231-.697.714-.697 1.318v.272h2.521l.037.38c.037.381-.039 1.123-.133 1.299a1 1 0 0 1-.174.207c-.112.101-.22.113-1.187.13l-1.064.018v7.364h-2.48zm5.644-1.225c.02-.513.223-1.03.461-1.445.419-.722 1.078-1.186 2.013-1.426.527-.136 1.583-.2 2.293-.141l.493.04v.432c-.001.527-.089 1.093-.203 1.315-.129.248-.38.326-1.055.326-.276 0-.43.004-.553.027-.347.08-.66.387-.833.708-.124.227-.143.42-.144.664l-.03 5.917h-2.478z"/><path fill="#ED1D61" fill-rule="evenodd" d="M76.59 9.908H80v3.335h-3.41z" clip-rule="evenodd"/></g><defs><clipPath id="clip0_3802_16783"><path fill="#fff" d="M0 0h80v13.435H0z"/></clipPath></defs></svg>