<svg xmlns="http://www.w3.org/2000/svg" fill="none" viewBox="0 0 80 80"><g clip-path="url(#clip0_3802_16866)"><path fill="#1ED760" d="M40 0C17.92 0 0 17.92 0 40s17.92 40 40 40 40-17.92 40-40S62.08 0 40 0"/><path fill="#000" d="M65.58 35.984c-.838 0-1.354-.21-2.08-.63-11.484-6.854-32.016-8.5-45.306-4.79-.581.162-1.307.42-2.081.42-2.13 0-3.758-1.661-3.758-3.807 0-2.193 1.355-3.435 2.806-3.854 5.678-1.662 12.033-2.452 18.952-2.452 11.774 0 24.113 2.452 33.129 7.71 1.258.725 2.08 1.726 2.08 3.645a3.737 3.737 0 0 1-3.741 3.758m-5 12.29c-.838 0-1.403-.37-1.983-.677-10.08-5.968-25.113-8.371-38.484-4.742-.774.21-1.194.42-1.92.42a3.13 3.13 0 0 1-3.129-3.13c0-1.726.84-2.87 2.5-3.339 4.484-1.258 9.065-2.193 15.775-2.193 10.468 0 20.58 2.597 28.548 7.339 1.306.774 1.823 1.774 1.823 3.177-.017 1.742-1.371 3.145-3.13 3.145m-4.338 10.58c-.677 0-1.097-.209-1.726-.58-10.064-6.064-21.774-6.322-33.339-3.951-.629.16-1.451.419-1.919.419-1.564 0-2.548-1.242-2.548-2.548 0-1.662.983-2.452 2.193-2.71 13.21-2.92 26.71-2.661 38.226 4.226.984.629 1.565 1.193 1.565 2.661a2.437 2.437 0 0 1-2.452 2.484"/></g><defs><clipPath id="clip0_3802_16866"><path fill="#fff" d="M0 0h80v80H0z"/></clipPath></defs></svg>