<svg xmlns="http://www.w3.org/2000/svg" fill="none" viewBox="0 0 63 81"><g clip-path="url(#clip0_3802_16501)"><path fill="#1D1D1B" d="M52.15 33.447q-.926-.646-1.773-1.394c.186-.323.517-.82.814-1.24 1.728-2.507 4.97-7.242 4.97-13.994a15.5 15.5 0 0 0-4.838-11.333C47.895 2.248 42.498-.003 34.573 0 27.048 0 18.577 2.47 11.26 6.797c-3.281 1.945-5.983 4.045-7.877 6.058C1.491 14.868.406 16.793.4 18.453a2.93 2.93 0 0 0 .894 2.122c1.068 1.05 2.964 1.54 5.383 1.8 2.42.259 5.37.259 8.546.259h.57c4.896 0 8.352.134 10.568.454a8.4 8.4 0 0 1 2.39.623c.5.257.657.502.66.782a1.2 1.2 0 0 1-.428.671c-1.057 1.06-3.833 2.634-6.329 4.361a21.6 21.6 0 0 0-3.319 2.705c-.876.926-1.47 1.877-1.48 2.856v.049c0 1.242.67 2.242 1.674 3.013 3.036 2.327 9.325 2.939 12.613 3.536 2.03.37 3.107 1.09 3.687 1.876a3.92 3.92 0 0 1 .688 2.416c0 2.82-1.045 5.31-2.925 7.012-1.667 1.533-3.678 2.527-6.611 2.53h-.352q.105-.819.103-1.645c0-3.319-1.302-6.086-3.518-7.997s-5.33-3.001-8.942-3.001c-4.459 0-8.034 1.847-10.485 4.592A15.12 15.12 0 0 0 0 57.423c0 5.63 2.599 11.287 7.66 15.525 5.06 4.239 12.59 7.063 22.44 7.063 7.81 0 15.688-2.57 21.651-7.057 4.938-3.713 10.853-10.498 10.839-21.623 0-10.179-6.832-15.208-10.433-17.858zm-31.084.72c1.091-1.089 3.344-2.634 5.027-3.699 1.682-1.065 3.141-2 4.215-2.956 1.074-.957 1.788-1.913 1.79-3.03a3.23 3.23 0 0 0-.976-2.322c-1.142-1.143-3.187-1.662-5.712-1.945s-5.59-.286-8.754-.286H15.8c-2.608 0-4.687-.04-6.347-.105 2.305-.894 4.97-2.32 7.875-3.87 4.712-2.52 9.933-5.318 14.85-6.57-1.142 1.286-1.87 2.751-1.876 4.014-.004.33.115.652.335.9a1.5 1.5 0 0 0 1.128.425c.877 0 1.856-.337 2.99-.7 1.536-.505 3.316-1.085 5.27-1.085a9.66 9.66 0 0 1 5.483 1.768c-1.303.085-2.37.465-3.039.994a2.05 2.05 0 0 0-.9 1.633c0 .723.512 1.268 1.143 2 1.01 1.142 2.336 2.633 2.336 5.04a9.06 9.06 0 0 1-1.674 5.044v-.308c0-1.223-.27-2.602-.942-3.385a2 2 0 0 0-1.548-.714c-1.031 0-1.92.794-3.245 1.885a33.5 33.5 0 0 1-3.572 2.662c-6.204 3.907-9.53 5.426-11.89 5.615-.871.077-2.176.063-1.111-1.005m5.686 23.927c3.493 0 6.406-1.065 8.66-3.141 2.407-2.19 3.776-5.47 3.776-8.997a6.04 6.04 0 0 0-1.497-4.172c5.206 1.242 10.613 3.918 13.62 7.942a9.9 9.9 0 0 0-3.25-.557c-.97.015-1.742 1.026-1.748 2.185 0 .606.232 1.294.509 2.154.434 1.333.99 3.055.99 5.112 0 1.896-.47 4.075-1.964 6.512-.043-1.965-.572-3.533-1.254-4.376a1.808 1.808 0 0 0-2.996-.031 11 11 0 0 0-1.142 1.83c-1.428 2.57-3.688 6.67-10.745 8.791a6.54 6.54 0 0 0 .971-3.141 2.5 2.5 0 0 0-.165-.957 1.3 1.3 0 0 0-1.22-.857h-.017c-.922.087-1.832.278-2.71.571-1.625.451-3.596 1.006-5.761 1.006a11.6 11.6 0 0 1-7.217-2.494 4.36 4.36 0 0 0 2.21-.922 1.97 1.97 0 0 0 .757-1.457c0-.825-.66-1.39-1.4-2.07-1.079-1.017-2.367-2.214-2.364-4.227.01-.677.132-1.347.363-1.982.22.629.556 1.21.994 1.713.66.711 1.448 1.143 2.219 1.143s1.29-.377 1.493-.857c.167-.476.237-.98.206-1.482a1.87 1.87 0 0 1 .6-1.331 2.04 2.04 0 0 1 1.396-.572c1.189 0 2.085.66 2.714 1.645.63 1.07.96 2.29.95 3.53a5.6 5.6 0 0 1-.376 2.097l-.269.654.557-.434a8.1 8.1 0 0 0 2.285-2.856c.266.02.548.028.825.028M3.68 19.252c-.366-.214-.597-.445-.597-.796 0-.963.91-2.497 2.599-4.179 5.054-5.066 16.761-11.592 28.89-11.584 6.13 0 11.121 1.517 14.437 4.347a12.63 12.63 0 0 1 4.453 9.782c0 5.932-2.793 10.019-4.493 12.492-.857 1.254-1.385 2-1.393 2.825a2.5 2.5 0 0 0 .834 1.75 18 18 0 0 0 2.139 1.731c3.53 2.614 9.333 6.883 9.336 15.708 0 10.02-5.295 16.105-9.75 19.467-5.495 4.144-12.807 6.523-20.041 6.523-18.067 0-27.418-10.053-27.418-19.898.01-3 1.106-5.895 3.085-8.15a11.14 11.14 0 0 1 8.51-3.762c2.028 0 4.587.477 6.618 1.833 2.03 1.357 3.553 3.582 3.559 7.183v.315a5.6 5.6 0 0 0-.786-1.283 4.52 4.52 0 0 0-3.604-1.722 3.6 3.6 0 0 0-3.593 3.496c.012.23-.018.462-.089.682a.4.4 0 0 1-.04.077c-.474 0-1.036-.34-1.485-.982a5 5 0 0 1-.785-2.856q0-.387.04-.771l.063-.571-.389.43c-1.828 2.034-2.487 3.874-2.487 5.456 0 2.59 1.748 4.438 2.782 5.406.188.172.422.386.605.572.088.094.168.182.223.25l.057.09v.017c0 .094-.206.342-.689.534a6.7 6.7 0 0 1-2.536.39c-.41 0-.856-.02-1.368-.068l-.45-.04.285.352c3.476 4.13 7.297 5.243 10.607 5.243 2.445 0 4.615-.608 6.18-1.045.66-.189 1.406-.468 1.817-.463.171 0 .243.04.285.092.055.094.08.202.072.311 0 .48-.286 1.35-.754 2.245a9.6 9.6 0 0 1-1.862 2.496l-.443.403.591-.078c10.108-1.299 13.48-7.157 15.137-10.178q.347-.666.76-1.294c.228-.34.454-.503.508-.483s.249.086.414.334c.497.737.914 2.57.911 4.504.005.832-.078 1.662-.248 2.477l-.126.585.437-.408c3.816-3.533 4.855-7.249 4.855-10.34a18 18 0 0 0-1.033-5.674 7.5 7.5 0 0 1-.426-1.662.73.73 0 0 1 .097-.457.5.5 0 0 1 .286-.154c1.61 0 3.524.57 5.82 1.67l.449.215-.194-.458c-3.096-7.285-10.036-10.415-16.788-12.123-3.382-.857-6.726-1.357-9.542-1.842-2.048-.355-3.822-.706-5.11-1.166l-.634-.285c3.862-.486 8.523-3.208 12.658-5.864a36 36 0 0 0 3.713-2.81c.506-.417.971-.805 1.368-1.082.25-.216.55-.366.874-.435a.5.5 0 0 1 .383.195c.38.408.605 1.539.597 2.773.005.983-.12 1.963-.372 2.913l-.131.48.417-.269c3.284-2.116 4.855-5.312 4.855-8.314s-1.668-4.886-2.742-6.089a20 20 0 0 1-.51-.594 2.6 2.6 0 0 1-.252-.365.8.8 0 0 1 .285-.363c.689-.514 1.863-.834 3.225-.834a9.8 9.8 0 0 1 2.188.257l.517.117-.326-.417c-2.825-3.633-6.072-4.678-8.968-4.672-2.285 0-4.341.637-5.846 1.142-.731.24-1.748.554-2.182.549a.4.4 0 0 1-.117 0c0-.529.388-1.428 1.114-2.368a11.7 11.7 0 0 1 3.238-2.856l.512-.306-.594-.043a12 12 0 0 0-.794-.028c-5.812 0-13.315 4.23-18.85 7.086-3.425 1.768-10.67 5.969-12.85 4.672z"/></g><defs><clipPath id="clip0_3802_16501"><path fill="#fff" d="M0 0h62.59v80.011H0z"/></clipPath></defs></svg>